<?xml version="1.0" standalone="no"?>
<!DOCTYPE svg PUBLIC "-//W3C//DTD SVG 1.1//EN" "http://www.w3.org/Graphics/SVG/1.1/DTD/svg11.dtd" >
<svg xmlns="http://www.w3.org/2000/svg">
<metadata></metadata>
<defs>
<font id="sambaregular" horiz-adv-x="1014" >
<font-face units-per-em="2048" ascent="1638" descent="-410" />
<missing-glyph horiz-adv-x="508" />
<glyph horiz-adv-x="2048" />
<glyph horiz-adv-x="2048" />
<glyph unicode="&#xd;" horiz-adv-x="508" />
<glyph unicode=" "  horiz-adv-x="508" />
<glyph unicode="&#x09;" horiz-adv-x="508" />
<glyph unicode="&#xa0;" horiz-adv-x="508" />
<glyph unicode="!" horiz-adv-x="792" d="M0 160v60q47 130 152 180q0 8 24 8q12 21 104 40l132 16q136 -17 136 -28q76 -27 100 -72q20 -40 20 -56v-12q-19 -100 -40 -100q0 -21 -116 -116q-23 0 -40 -20q-12 0 -44 -20l-60 -20l-84 -20h-36q-31 0 -124 20q-27 20 -48 20q-76 72 -76 120zM156 568l4 168v172l8 92 l-4 12q16 104 16 200v48l28 300q11 22 16 152q20 55 20 140q19 76 28 76h464l12 -12v-16q-17 -38 -48 -160q-36 -99 -36 -136q-12 0 -24 -84q-10 -15 -40 -160q-12 -25 -16 -80q-20 -41 -20 -100q-12 -12 -24 -128q-10 0 -16 -112q-15 -25 -36 -248q0 -52 -52 -52 q-50 0 -96 -20q-28 0 -72 -20q-21 0 -96 -40z" />
<glyph unicode="&#x22;" horiz-adv-x="796" d="M5 1809q24 36 268 36l12 -16v-8q-16 -139 -20 -264q4 -114 16 -192q-37 -32 -200 -32q0 -8 -36 -8q-30 0 -40 484zM433 1813q28 32 264 32l8 -12l-8 -292l8 -176q0 -22 -240 -40q-32 75 -32 488z" />
<glyph unicode="#" horiz-adv-x="1417" d="M0 968v20l12 12h72l192 8l8 16l-4 28v84l-8 152q21 20 36 20h8l160 4q28 -25 28 -36h4l-4 -28q3 -228 8 -228l4 -4h4q0 14 268 24q12 10 12 24v4q0 112 -12 236l12 12l108 4h64q46 0 52 -20v-232l8 -8q106 16 252 20l16 -20v-12l8 -76v-84q0 -36 -40 -36l-224 -12v4 q-16 -4 -16 -20l4 -272h-4l8 -12q48 12 260 24l24 4q11 0 28 -192q0 -36 -32 -36l-88 -12l-4 4l-60 -4h-108l-20 -4v-172q0 -120 -24 -120q-105 0 -172 -20q-11 0 -20 20l4 196v72q0 8 -12 8q-114 0 -240 -20l-28 4q-24 -4 -24 -12v-140q0 -116 -24 -116q-56 -16 -176 -20 l-4 -4h-4l-12 32q8 50 12 236l4 12l-4 4h-4l-180 -12h-32l-16 -4q-28 0 -40 128l-8 72l20 16h40l196 8l16 8l-4 48v200q0 52 -12 52l-24 -8l-212 -4h-16l-16 16v44zM508 800l4 -24l4 -252l-4 -20l300 20l8 24v40l-8 232l-20 8q-162 -20 -272 -20h-8v-8h-4z" />
<glyph unicode="$" horiz-adv-x="1372" d="M25 12v4l20 140q10 0 16 116q12 12 24 128h8q15 0 112 -72l44 -20q33 -20 64 -20q0 -18 164 -32q64 0 64 20l-4 12l4 148v176q-23 22 -104 36q0 7 -52 20l-48 20q-2 12 -32 12q0 13 -40 24l-80 64q-60 52 -80 92q-46 63 -68 176v120q0 31 20 88q27 98 136 208 q57 58 184 128q114 48 128 48q23 0 52 28l-4 40v96q0 36 28 36h168l16 -12l-4 -40v-84l12 -12h80q218 -11 244 -28l84 -24q84 -26 84 -48v-4l-20 -44l-20 -64l-60 -176l-48 -136h-4q-24 0 -64 24l-64 20q-52 20 -192 28l-44 8l-4 -20v-296l12 -12h32l88 -20q88 -20 176 -60 q74 -25 168 -116q52 -71 52 -84q11 0 16 -52q13 0 16 -64v-104q-16 -107 -80 -204q0 -14 -84 -96q-49 -52 -104 -80q-70 -50 -148 -76q0 -8 -52 -20q0 -9 -60 -20q-3 -8 -52 -16v-100l-16 -16h-148q-21 0 -24 12v64l-8 8h-24q-173 16 -256 36q-17 0 -68 20q-124 36 -156 72z M385 1128q0 -49 76 -100q11 0 40 -20q18 0 32 -12h12l4 212l4 28q-39 -16 -76 -20q-4 -8 -48 -24q-44 -34 -44 -64zM729 292h4q67 16 108 36q12 0 32 20q31 0 64 64v60q-39 58 -104 76q0 11 -56 16l-16 12h-16q-8 0 -8 -12z" />
<glyph unicode="%" horiz-adv-x="1552" d="M5 127v4q71 64 180 224q113 161 336 512l144 236q214 346 436 732l20 8l36 -32q0 -8 24 -8q26 -30 152 -88v-8q0 -10 -48 -88l-136 -240q-8 0 -20 -36q-13 -5 -24 -40l-160 -268q-207 -343 -472 -728q-156 -212 -276 -348q-37 9 -192 168zM5 1359v108q20 88 60 152 q15 42 128 140q84 64 200 84h128q126 -33 140 -60q61 -19 112 -140l8 -72q0 -181 -136 -316q-101 -93 -180 -104q0 -13 -144 -28h-8q-120 0 -188 52q-71 46 -104 124zM289 1451q0 -60 48 -84l16 -4h36q48 0 92 76l16 64v16q0 56 -56 76h-52q-76 -30 -76 -68q-20 0 -24 -76z M725 251v8h4l-4 48v32q21 139 32 152q31 123 148 256q126 100 204 100l40 4q175 0 264 -160q16 -16 40 -108v-152q-20 -116 -60 -208q-85 -174 -240 -240q-91 -28 -116 -28h-28q-119 0 -208 108q-35 48 -56 116q0 20 -20 72zM985 371q7 -92 32 -92q0 -16 32 -16h28 q35 0 88 76l20 92v8q0 77 -72 88h-28q-49 -22 -76 -68q-16 -22 -24 -88z" />
<glyph unicode="&#x26;" horiz-adv-x="1802" d="M0 448v32q0 86 20 140q7 46 56 120q26 49 84 104q98 103 184 156v4l-44 84q-82 169 -88 256q-5 0 -8 36h-4l4 20v36q19 128 36 128q0 38 100 148q85 71 160 96q5 7 116 28h108l112 -20q187 -55 288 -188q68 -87 68 -144q5 0 16 -56q0 -38 -24 -160q-9 0 -24 -56 q-9 0 -40 -60q-111 -115 -152 -136q-36 -32 -56 -32q0 -8 -24 -16v-12l192 -160q61 -48 76 -48q76 96 88 140q27 39 44 112q9 0 16 52l4 4h12q52 -40 76 -44q0 -9 112 -56l104 -40l8 -16l-40 -108q-10 0 -16 -36q-11 -8 -24 -44l-96 -160q0 -11 68 -44q70 -44 172 -88 q39 -13 60 -36v-4q-41 -81 -112 -188q-68 -100 -124 -160l-16 -4l-124 64l-196 128l-156 -112l-84 -40l-44 -20l-64 -20l-100 -20l-156 -8q-165 7 -220 28q-118 36 -152 76q-79 31 -156 180q-20 52 -40 164zM408 492q0 -34 48 -76q64 -36 116 -40h4q155 19 180 40 q20 0 80 40v12q-34 0 -284 260h-12q-99 -81 -124 -136q-7 0 -8 -20v-80zM556 1408q0 -106 56 -156q24 -31 44 -40q78 0 168 116l12 36v36q-16 15 -16 40q-56 56 -136 56l-56 -8h-12q-60 -39 -60 -80z" />
<glyph unicode="'" horiz-adv-x="562" d="M5 1432v24q63 71 160 288q13 20 24 68q17 16 40 16h184q61 0 104 12l4 -4v-4q0 -35 -152 -256q-55 -77 -96 -120l-56 -56h-20l-188 28z" />
<glyph unicode="(" horiz-adv-x="649" d="M5 621v76l4 24l-4 16q19 356 32 356q0 60 24 164q60 279 80 300q0 23 20 68l20 60l52 148q13 20 32 20q86 -20 156 -20h16l12 -12v-20q-60 -352 -72 -464q-28 -178 -48 -580q0 -194 16 -316l-4 -16q7 -36 12 -200q20 -70 20 -176q12 -17 24 -144q6 0 12 -44 q0 -32 -192 -32l-20 -4q-33 0 -44 64l-4 4q-28 62 -28 92q-12 6 -32 88q-8 0 -12 60q-15 0 -20 84q-8 0 -12 40q-28 149 -28 236q-12 64 -12 128z" />
<glyph unicode=")" horiz-adv-x="598" d="M86 -112l28 168q10 0 16 116q15 19 20 140q15 15 20 164q15 0 36 496q-20 477 -40 568q0 71 -20 160l-20 116q0 24 120 32h84q44 0 52 -60q12 0 12 -40q15 0 24 -68q12 0 20 -60q12 0 24 -84q11 0 16 -76q12 0 24 -112q12 0 32 -336l-8 -140l4 -24l-24 -264 q-7 0 -20 -116l-20 -100q-52 -217 -140 -464q-5 0 -24 -56q-15 -28 -28 -28q-33 19 -88 20h-88l-12 12v36z" />
<glyph unicode="*" horiz-adv-x="797" d="M50 951v20q32 32 68 92q9 0 16 36l28 20h4q41 -37 84 -56l4 4l-4 48v56q0 22 16 28h20l12 -4l72 8l4 -4h4l44 4h24l12 -12v-36l-4 -48l12 -4q62 84 76 84h8q58 -44 132 -132v-8l-108 -116q0 -8 12 -8q21 -16 32 -16l24 -8q18 -20 48 -20l4 -4q7 -12 28 -12l8 -12v-4 q-9 -12 -20 -56l-24 -52q-27 -59 -60 -80h-4q-12 14 -52 24l-12 12h-20v-8h-4l24 -96q0 -36 -68 -36q-63 -20 -92 -20h-52l-16 16v16q-15 104 -24 104h-8q-61 -76 -88 -76h-8q-68 92 -124 152v4l116 104v16q-16 0 -92 44q-50 27 -52 36z" />
<glyph unicode="+" horiz-adv-x="1196" d="M2 896q3 24 24 24l192 4l16 4l4 -4l68 4h100q12 0 12 16l-4 4v4q20 61 40 244q0 116 36 116q192 16 260 36h20l12 -12l-40 -276q-4 -43 -20 -84l4 -12q74 0 216 24q29 0 108 20h36l16 -16v-40l16 -180q-20 -27 -168 -40q0 -11 -136 -16q-42 -16 -100 -16h-20 q-36 0 -36 -96q-10 0 -24 -92l-52 -204q-39 -28 -196 -44h-80l-8 8v24q16 36 20 116q12 0 24 112q9 12 20 112q8 0 8 20v8l-4 4v4l-44 -8l-4 4h-4q-39 -8 -116 -8h-168l-16 12l4 24l-4 148z" />
<glyph unicode="," horiz-adv-x="757" d="M6 -292l84 156q8 0 8 24q11 8 48 96q10 0 16 48q13 6 28 60q8 0 12 48q11 0 24 64q11 0 16 56q22 48 28 48l4 4l20 -4q348 12 348 28h12q12 -4 12 -24l-68 -156q-9 0 -16 -40q-11 -7 -64 -120q-7 0 -64 -104q-73 -113 -140 -200q-21 -36 -44 -36v-4l-184 28 q-21 11 -44 12h-24l-12 12v4z" />
<glyph unicode="-" horiz-adv-x="1057" d="M-5 1030q15 12 36 12q152 0 252 12l4 -4h4q24 7 216 12q0 9 196 24q0 9 112 16q15 15 128 20q28 -61 28 -284l-12 -8h-12l-232 -40q-73 0 -184 -20h-32l-308 -20h-172l-16 12l4 20l-4 188z" />
<glyph unicode="." horiz-adv-x="662" d="M2 225v8q16 81 52 124q64 76 132 112q41 23 84 32q1 8 28 12h120q87 -16 152 -80q40 -61 40 -92q8 0 16 -48q-9 -82 -88 -184q-104 -83 -168 -92q0 -9 -36 -12h-104q-61 0 -148 48q-63 57 -76 132z" />
<glyph unicode="/" horiz-adv-x="1404" d="M4 35q0 30 100 160l80 116q57 93 84 124l120 188q187 303 268 456q74 122 200 380q8 0 8 24q13 12 116 232l36 84q21 52 32 52l156 -80q64 -21 64 -36v-16q-30 -45 -40 -88l-64 -132q-246 -532 -612 -1080l-168 -244l-140 -199q-41 -68 -60 -68q-113 89 -180 127z" />
<glyph unicode="0" horiz-adv-x="901" d="M40 918q0 223 139.5 340.5t337.5 117.5q342 0 342 -454q0 -13 -1 -34.5t-1 -31.5q-16 -428 -110.5 -640t-243.5 -212q-88 0 -162 49t-120 123t-82 171t-53 184t-28.5 172t-13.5 125t-2 51q-2 12 -2 39zM294 612q0 -69 45 -109t125 -40q78 0 119 50t41 122t-41 126 t-111 54q-76 0 -127 -62.5t-51 -140.5z" />
<glyph unicode="1" horiz-adv-x="581" d="M20 1227q0 24 8 46.5t29.5 48.5t70 41t117.5 15q215 0 221 -39q74 -467 74 -847q0 -373 -82 -486q-18 -6 -47 -6q-92 0 -117 14q-22 11 -42.5 60t-37 177t-16.5 314l15 553q-5 6 -14 17.5t-57 31t-118 25.5q-4 14 -4 35z" />
<glyph unicode="2" horiz-adv-x="1021" d="M10 1237q0 63 10 74q4 8 18.5 19t86 27.5t182.5 16.5q119 0 211 -15.5t149.5 -34.5t98.5 -55t58 -59.5t27.5 -65.5t10.5 -54.5v-45.5q0 -94 -51 -208q-68 -152 -141.5 -291t-114.5 -203l-41 -63q223 36 487 36q-65 -245 -119 -258q-254 -61 -542 -57q-29 0 -74 10t-94 48 t-49 96q0 32 4 54.5t26.5 81t69.5 150.5q63 129 150.5 261.5t135.5 205t48 103.5q-2 43 -26.5 69.5t-77 35.5t-82 11t-91.5 2q-139 0 -254 -14q-16 55 -16 123z" />
<glyph unicode="3" horiz-adv-x="1081" d="M20 1117v4q0 107 96 209q73 52 224 52q419 0 521 -209q28 -63 28 -116q0 -184 -192 -324q364 -56 364 -325q0 -305 -512 -392q-134 -16 -205 -16q-77 0 -112 52q283 258 297 276q80 90 80 113v12q0 24 -285 56q-91 17 -160 88v8q250 166 325 240q60 67 60 128v12 q0 96 -213 128q-74 4 -108 4h-208z" />
<glyph unicode="4" horiz-adv-x="1044" d="M10 555q0 111 53 260.5t144 259.5q100 125 234 210t202 91q176 -137 186 -196q25 -168 25 -512q6 0 16 -2t39 -14.5t51.5 -32t45 -60.5t28.5 -96l-199 -27q-8 -117 -32.5 -246t-53.5 -182q-16 -8 -39 -8q-102 0 -163 23q-25 71 -39 319l-4 49q-232 0 -394 55l-8 5 q-10 2 -15 4t-16.5 6t-17.5 9t-15.5 14.5t-14.5 18.5t-9 22.5t-4 29.5zM317 782q0 -80 42 -119.5t110 -39.5q78 0 138 48t60 124q0 69 -56 112t-130 43q-70 0 -117 -43t-47 -125z" />
<glyph unicode="5" horiz-adv-x="1057" d="M20 1249q0 97 16 97q416 32 497 32q268 0 356 -181q16 -71 24 -124q-4 0 -4 -4q-206 28 -340 28h-88q-46 0 -97 -12v-8q0 -20 -4 -60q657 -197 657 -536q0 -237 -228 -409q-124 -68 -272 -68h-20q-189 0 -349 76q-44 34 -44 68q0 95 172 212h8q136 -8 173 -8 q121 0 136 81q0 137 -445 344q-66 43 -120 248q-28 111 -28 224z" />
<glyph unicode="6" horiz-adv-x="1069" d="M20 653q0 258 120 480q118 158 325 217q58 20 132 20q72 0 136 -28v-4q-301 -290 -321 -405h4q41 4 65 4h52q214 0 360 -112q156 -160 156 -356q0 -240 -324 -425q-97 -44 -172 -44h-40q-305 0 -441 332q-52 145 -52 321zM388 521q34 -129 153 -129q120 0 152 133v20 q0 79 -104 116q-16 8 -44 8h-8q-111 0 -149 -112v-36z" />
<glyph unicode="7" d="M44 1212v32q0 103 92 128h828q8 -1 8 -8q-372 -1262 -392 -1308q-44 -56 -108 -56h-20q-111 0 -176 120l-4 24v28l240 848q-287 -4 -376 -8q-68 0 -92 200z" />
<glyph unicode="8" d="M37 409q0 214 160 369q-100 134 -110 249q0 220 249 319q39 20 110 20h90q418 -93 418 -419q0 -141 -149 -289v-10q179 -80 179 -279v-30q0 -229 -399 -339h-129q-318 0 -409 289zM386 907q0 -100 159 -129q92 0 120 159q0 110 -169 130q-110 -35 -110 -120v-40zM406 399 q24 -120 120 -120h39q103 0 120 140v30q0 111 -149 129q-130 -22 -130 -129v-50z" />
<glyph unicode="9" horiz-adv-x="977" d="M20 917q0 290 252 393q172 72 297 72h28q188 0 312 -201q48 -94 48 -264v-72q0 -488 -264 -737q-116 -96 -253 -96h-56l-8 4q149 278 149 372q-209 27 -281 81q-123 65 -184 232q-40 105 -40 216zM384 869q0 -59 89 -104q26 -12 56 -12h16q106 0 144 112v40q0 55 -80 104 q-29 15 -72 20q-99 0 -145 -100q-8 -15 -8 -32v-28z" />
<glyph unicode=":" horiz-adv-x="757" d="M15 193v60q12 62 60 124q131 140 300 140q178 0 240 -148l20 -72q-7 -72 -72 -164q-77 -77 -156 -108l-64 -16l-84 -4l-20 4l-12 -4l-96 28q-78 41 -92 88q-9 1 -24 72zM67 1165v16q0 85 104 184q128 100 260 100q121 0 208 -92q44 -70 44 -128l4 -4q-12 -76 -52 -140 q-75 -90 -124 -104q-34 -31 -168 -48q-156 16 -156 36q-47 0 -96 84q-24 54 -24 96z" />
<glyph unicode=";" horiz-adv-x="892" d="M3 -252q19 18 28 48q8 0 44 80l16 36q8 0 8 12l8 28q12 7 24 51q32 51 32 84q33 46 48 116q8 0 20 52q8 0 20 64q11 32 56 32q85 8 260 8q32 0 88 16h4l8 -8v-12q-36 -69 -40 -96q-8 -3 -80 -160q-8 -4 -100 -179q-7 0 -48 -72q-54 -87 -100 -136l-28 -20q-83 20 -192 24 q-33 20 -72 20l-4 4v8zM243 1019v76q31 106 136 180q114 76 224 76q131 0 212 -96q44 -73 44 -128q-8 -72 -32 -112q-9 -1 -24 -40l-64 -64q-108 -68 -184 -68q0 -8 -36 -8q-156 16 -156 36q-38 0 -76 52q-15 5 -40 80z" />
<glyph unicode="&#x3c;" horiz-adv-x="987" d="M0 852v4q83 83 172 196q234 292 404 580l84 136h12l148 -132l4 -16v-4l-92 -136q-195 -295 -416 -572q-16 -17 -16 -32q230 -266 488 -628l60 -80q12 0 12 -8v-12q-149 -148 -176 -148q-97 181 -328 472q-113 137 -176 200z" />
<glyph unicode="=" horiz-adv-x="1272" d="M125 1176v44l12 12l392 20q57 15 208 20q60 20 164 20l72 16h56q24 0 24 -152v-48q0 -28 -28 -28h-36q-179 -24 -276 -24q-47 -13 -320 -24q0 -5 -60 -8l-4 4h-4q-39 -8 -116 -8h-48l-16 16v24zM157 700l20 16l124 8l4 -4h4q200 9 324 28q76 0 196 20q41 0 164 20 q32 0 68 12q17 0 28 -140v-44l4 -16q0 -40 -112 -40q-133 -20 -288 -24q-76 -14 -356 -24l-140 -12q-15 0 -32 144z" />
<glyph unicode="&#x3e;" horiz-adv-x="992" d="M0 152v4q43 51 64 88l176 240q8 0 80 104q8 0 60 76l176 212q0 16 -128 180q-125 165 -240 336l-112 164l-36 56v20l152 136q18 -2 96 -144q52 -76 52 -92q11 -2 48 -68l80 -120q145 -201 196 -260l96 -116q20 -36 100 -112v-4l-164 -164q-72 -68 -232 -268 q-146 -186 -228 -320l-68 -100h-4q-160 134 -164 152z" />
<glyph unicode="?" horiz-adv-x="1677" d="M5 1240l4 128v12l48 216q7 0 20 72q8 0 20 64q6 0 20 32l72 20q78 20 144 28q0 12 136 16l80 16l4 -4l40 4h80q129 0 276 -20q151 -20 212 -40q98 -23 224 -88q59 -33 136 -108q68 -103 76 -168v-104q-20 -44 -20 -68q-43 -88 -116 -172q-169 -155 -300 -208 q0 -8 -40 -20q0 -8 -44 -20q0 -11 -52 -16q0 -12 -60 -24q0 -8 -64 -20q-3 -9 -116 -24l-4 -4h-4l-12 4q-24 0 -24 -36q-7 -172 -32 -172h-200q-161 -20 -208 -56h-8l-12 12q7 8 12 100q12 12 24 128q11 28 20 128q9 2 16 104q5 0 12 48q6 40 28 40q133 0 188 20 q44 4 196 44q42 20 72 20q7 13 76 28q0 12 40 12q16 18 48 28q0 12 24 12l52 48l16 52q-28 56 -96 56q0 11 -172 24q0 10 -180 12h-8q-52 0 -176 -20q-26 0 -260 -60l-52 -20q-21 0 -48 -20q-13 0 -88 -44zM169 100q0 76 88 168q69 60 92 60q0 15 52 20q0 15 144 32h24 q76 0 160 -24q0 -6 40 -20q54 -44 68 -80v-72q-13 -88 -152 -184l-44 -24q-128 -56 -216 -56h-20q-137 20 -160 52q-12 0 -48 48q-9 0 -12 36q-10 0 -16 44z" />
<glyph unicode="@" horiz-adv-x="2079" d="M5 856q0 275 144 520q72 118 192 232q56 39 56 48q123 81 216 120l56 20q71 24 104 24q0 18 244 24q198 -8 260 -28q30 0 76 -20q27 0 116 -40q15 0 112 -56q198 -136 264 -300q36 -66 36 -92q13 0 24 -84q12 0 16 -100q12 0 16 -148v-64l-20 -140l-20 -56 q-10 -68 -132 -208q-102 -68 -116 -68q-8 -9 -56 -24q0 -6 -100 -16q-121 0 -172 28q-44 0 -156 84l-64 80q-130 -112 -240 -124h-48l-16 -4l-16 4h-44q-103 30 -128 72q-47 36 -72 96q-5 0 -28 80v152q25 151 136 292q119 115 192 124q14 12 48 12h40l16 4l16 -4h36 q86 -20 124 -52h4q8 0 12 40l12 4l60 -12h140q24 -2 24 -12v-8q-12 -11 -16 -64q-12 -7 -24 -88q-9 0 -20 -88q-12 0 -16 -136q0 -99 60 -152q10 -22 108 -44q122 0 168 132l16 120q-16 194 -56 284q-31 71 -80 136q-48 61 -116 104q-34 24 -68 36q-73 48 -268 72h-144 q-73 -20 -124 -24q0 -9 -68 -24l-108 -56q0 -12 -56 -40q0 -7 -48 -48q-102 -106 -140 -200q-8 0 -20 -44q-28 -44 -40 -128q-9 0 -20 -120q8 -208 24 -208q0 -43 44 -148q42 -83 84 -132q93 -93 132 -108q84 -57 212 -80q0 -10 124 -16l4 4h4l64 -8q180 9 180 28 q39 0 68 20l40 4q46 -97 104 -176v-4q0 -12 -32 -12q-13 -18 -88 -40q-178 -48 -348 -48q-209 0 -352 60q-72 24 -160 84q-14 2 -32 24q-22 0 -132 116q-90 107 -144 224q-36 75 -64 208q-10 0 -16 180zM781 820q16 -92 76 -92h4q90 0 116 88q11 0 28 124q0 81 -76 104h-8 q-65 -15 -76 -36q-25 -22 -40 -60q-24 -53 -24 -88v-40z" />
<glyph unicode="A" horiz-adv-x="1167" d="M0 224q0 284 210 865q150 347 284 347h10q159 0 428 -476q238 -505 238 -907v-21q0 -27 -14 -32h-11q-81 0 -395 301q-165 -122 -361 -206q-169 -74 -287 -74h-7q-91 20 -91 158q-4 0 -4 45zM357 630q0 -122 147 -143h21q106 0 168 94q21 35 21 70v11q0 104 -140 151 q-13 7 -38 7h-28q-104 0 -144 -123q-7 -35 -7 -63v-4z" />
<glyph unicode="B" horiz-adv-x="1071" d="M0 726q0 290 190 694l7 3q194 -26 352 -86q301 -120 301 -297q0 -112 -118 -211v-3q238 -105 311 -270q28 -56 28 -117v-49q0 -177 -242 -307q-204 -83 -373 -83h-62q-4 0 -4 3q-3 0 -3 -3q-104 16 -169 73q-218 176 -218 653zM221 940q0 -105 111 -142q38 -7 51 -7 q102 0 173 93q21 39 21 73v3q0 102 -135 152q-32 7 -52 7h-7q-111 0 -152 -114q-6 -29 -10 -65zM439 380q0 -113 145 -135h24q85 0 162 90q21 43 21 73v10q0 123 -190 156q-7 -4 -10 -4v4q-152 -27 -152 -170v-24z" />
<glyph unicode="C" horiz-adv-x="1071" d="M0 699q0 394 330 643q153 87 418 87q299 -13 299 -49q10 -16 10 -48q-12 -160 -70 -160q-248 -59 -319 -108q-320 -154 -320 -410v-25q0 -261 299 -351q65 -21 260 -45v-4q-37 -120 -118 -170q-73 -59 -201 -59h-25q-266 0 -354 104q-115 82 -181 345q-28 142 -28 250z " />
<glyph unicode="D" horiz-adv-x="1025" d="M0 703v83q0 270 90 637q3 0 3 4q206 -17 458 -184q467 -316 467 -817h-3q0 -4 3 -4q0 -218 -232 -335q-180 -87 -426 -87q-84 3 -93 3v4l-7 -4q-20 0 -87 122q-173 313 -173 578zM339 575q0 -118 132 -159h21q104 0 183 124q14 47 14 73q0 95 -118 135q-18 3 -31 3h-28 q-121 0 -169 -121q-4 -13 -4 -28v-27z" />
<glyph unicode="E" horiz-adv-x="969" d="M0 385v161q0 67 3 199h4q0 4 -4 4l4 42v31q0 4 3 4q0 3 -3 3l3 18q0 167 56 538q102 53 266 53h11q322 0 511 -63q31 -47 52 -140q11 -44 11 -56l-7 -4h-95q-294 0 -427 -196q-38 -65 -38 -122q0 -38 28 -38h248q168 0 168 -21q-34 -141 -119 -207q-83 -63 -182 -101 q-98 -32 -119 -35v-4q56 -28 368 -122q196 -70 196 -119q24 -67 24 -126v-49q0 -26 -308 -35q-475 0 -619 245q-35 77 -35 140z" />
<glyph unicode="F" horiz-adv-x="785" d="M0 730v100q0 262 35 546q150 52 349 52h69q230 0 256 -48q68 -86 76 -132q-11 -8 -135 -55q-221 -114 -294 -294q-17 -53 -17 -62l315 -7v-24q0 -191 -249 -228q-11 -4 -42 -4h-21v-38q0 -59 -7 -508v-11q0 -9 -148 -17q-141 15 -146 48q-41 316 -41 682z" />
<glyph unicode="G" horiz-adv-x="972" d="M0 606h3l-3 7v117q0 284 187 512l76 70q135 97 260 107q33 7 72 10v-3l7 3h76q4 0 4 -3q3 0 3 3q142 -11 142 -27q41 -27 80 -97q45 -123 45 -184l-7 -3h-132l-17 -4v4q-7 -3 -38 -7v3q-142 -20 -242 -62q-86 -47 -156 -135q-66 -131 -66 -246h-3q0 -3 3 -3l-3 -24v-35 q0 -111 72 -187q92 -76 208 -76l21 4h21q3 0 3 -4q7 4 10 4q67 0 77 13q-4 7 -4 11q0 36 -7 76h4q-3 7 -11 83h4q-4 7 -4 10q0 36 -7 76l7 4v-4q4 0 4 4q146 -13 266 -90q14 -19 14 -31v-42q0 -3 -3 -3l3 -7q-17 -114 -42 -180q-34 -117 -138 -183q-124 -87 -349 -87 q-274 0 -385 332q-31 75 -52 232q0 24 -3 42z" />
<glyph unicode="H" horiz-adv-x="1068" d="M0 860q0 264 45 476q74 100 333 100l65 -631l33 -3h38q176 0 201 110v249q0 145 23 175q49 74 181 74q81 0 81 -16q22 -210 42 -440h-4q23 -218 23 -436v-46q0 -472 -307 -472q-23 40 -75 281q-45 68 -174 68q-62 0 -62 -13q0 -138 -84 -313q-44 -4 -55 -4q-79 0 -184 30 q-120 494 -120 811z" />
<glyph unicode="I" horiz-adv-x="361" d="M0 550v77q0 342 42 687q46 123 221 123q80 0 80 -25q18 -165 18 -403v-171q0 -496 -77 -820q-62 -18 -161 -18q-74 10 -74 67q-49 257 -49 483z" />
<glyph unicode="J" horiz-adv-x="700" d="M0 14v8q120 170 245 234q0 3 69 43q18 0 18 729v246q0 81 101 115q72 25 220 43q22 -47 40 -389q7 0 7 -220q0 -566 -148 -711q-187 -112 -447 -112q-105 3 -105 14z" />
<glyph unicode="K" horiz-adv-x="955" d="M0 749q0 297 104 652q17 32 48 32q104 -18 104 -48q38 -33 38 -430v-123q65 43 291 215q80 60 114 60q73 0 73 -177v-35l-332 -307v-3q515 -235 515 -452v-7q0 -78 -38 -117h-3l-610 339q0 -270 -149 -339q-15 -9 -41 -9q-32 45 -67 221q-47 274 -47 528z" />
<glyph unicode="L" horiz-adv-x="743" d="M0 902v120q9 396 28 396q77 18 183 18h63q67 -4 67 -25q-36 -605 -36 -842q0 -212 71 -260q62 -35 210 -35q53 0 144 7q0 -4 4 -4q-120 -277 -200 -277q-113 0 -478 35q-56 560 -56 867z" />
<glyph unicode="M" horiz-adv-x="1252" d="M0 1249q54 17 129 17h21q144 0 326 -339q53 -101 84 -186h7q67 174 188 375q84 119 165 202q98 94 157 119q175 -162 175 -706q-22 -689 -73 -689q-35 -32 -81 -32q-101 0 -101 35q-21 120 -63 595q-4 0 -18 98h-3q-102 -338 -214 -532q-24 -58 -101 -126h-10 q-101 148 -200 392l-35 109h-3v-11q0 -420 -53 -546q-18 -24 -38 -24h-18q-112 0 -112 21q-32 73 -70 367q-59 580 -59 861z" />
<glyph unicode="N" horiz-adv-x="1061" d="M0 901v56q14 279 38 299q133 -42 397 -216q152 -101 355 -296v4l-14 685l7 4q243 -47 243 -195q35 -225 35 -407v-108q0 -401 -167 -689h-3q-69 0 -303 223q-141 148 -268 306q-16 -550 -42 -550q-33 -17 -108 -17q-12 3 -31 3h-17q-10 0 -42 188q-80 463 -80 710z" />
<glyph unicode="O" horiz-adv-x="1008" d="M0 883q0 180 102 359q103 135 197 166q100 42 197 42v-4l7 4q375 0 475 -362q22 -102 32 -222q0 -4 -3 -4q3 -31 3 -35q0 -167 -18 -264q0 -3 4 -3q-81 -560 -415 -560h-11q-241 0 -405 201q-165 207 -165 682zM359 503q0 -116 137 -162q39 -3 67 -3h4q38 0 88 49 q38 52 38 123v4q0 90 -77 158q-48 32 -85 32q-131 0 -172 -183v-18z" />
<glyph unicode="P" horiz-adv-x="933" d="M0 1101v39q0 81 24 233q254 56 453 56q391 0 464 -185q11 -41 14 -97q0 -182 -112 -405q-106 -167 -320 -237q-96 -24 -126 -24q0 -8 4 -52q0 -27 7 -426l-7 -3h-7q-234 0 -234 28l-136 788q-24 163 -24 285zM328 969q0 -111 111 -164q30 -7 38 -7q112 0 185 129 q14 25 14 63v14q0 94 -108 132q-33 7 -52 7q-116 0 -181 -111q-7 -32 -7 -46v-17z" />
<glyph unicode="Q" horiz-adv-x="1354" d="M0 960h3l-3 6v142q0 3 3 3q0 3 -3 3q0 57 49 226q3 0 24 60q47 101 148 199q126 96 267 114q16 0 51 5v-3l6 3h78q3 0 3 -3q2 0 2 3q100 0 235 -59q68 -35 130 -103q108 -120 145 -326q8 -46 19 -135q0 -3 -3 -3l6 -51h-3l3 -5q0 -3 -3 -3l3 -5v-119q0 -3 -3 -3l3 -5 q0 -3 -3 -3q0 -3 3 -3q-16 -258 -49 -366l-11 -54q17 -10 119 -114q64 -64 84 -64q46 -28 46 -76q0 -78 -108 -221q-44 0 -275 81q0 3 -73 43q-104 -73 -238 -73q-276 0 -469 235q-68 99 -100 183q-83 234 -83 475q0 2 -3 16zM332 623q0 -149 153 -237q49 -23 130 -33 q0 -2 5 -2q6 2 8 2v-2l6 2h19q2 0 2 -2l68 16v2q-16 90 -16 106v94q0 55 43 116h2q65 -30 125 -59v2q0 156 -119 262q-68 54 -146 54h-16q-94 0 -178 -94q-84 -104 -84 -224q-2 0 -2 -3z" />
<glyph unicode="R" horiz-adv-x="1160" d="M0 1181q7 71 11 71q0 3 -4 3q22 162 28 162q176 29 215 29h71q123 -4 130 -15q4 0 4 4q217 -40 352 -159q145 -128 145 -303v-3q0 -222 -169 -325v-3q155 -58 289 -304q95 -236 95 -327q-27 -11 -78 -11h-151q-7 2 -67 141q-125 243 -353 243q-97 0 -127 -98 q-18 -163 -56 -208q-52 -74 -159 -74q-7 4 -46 271q-126 701 -126 878v7zM289 910q0 -123 116 -152q19 -4 43 -4q117 0 187 113q12 25 17 67q0 49 -56 113q-77 46 -141 46q-94 0 -152 -92q-14 -40 -14 -81v-10z" />
<glyph unicode="S" horiz-adv-x="1011" d="M0 1099q0 227 247 299q113 36 260 36h60q268 -20 278 -57q-105 -162 -186 -162q-152 -40 -152 -116v-4q0 -71 240 -218q271 -199 271 -401q0 -341 -426 -451q-116 -25 -208 -25h-102q-4 0 -4 4q-3 0 -3 -4q-144 15 -198 32q84 162 141 162q293 95 293 211q0 117 -233 289 q-108 68 -179 137q-99 114 -99 268z" />
<glyph unicode="T" horiz-adv-x="1131" d="M0 1161q7 244 35 244q146 24 449 24q610 0 610 -31q28 -79 28 -164v-11q0 -27 -83 -52q-78 -31 -314 -94q-42 -281 -84 -1004q-3 -32 -3 -70q-7 -3 -11 -3q-166 21 -184 59q-53 29 -77 492q-4 92 -4 212v331q-334 40 -359 53z" />
<glyph unicode="U" horiz-adv-x="1075" d="M0 736q0 295 79 657q22 58 32 61h3q62 0 204 -179v-7l-22 -432q0 -301 90 -357q34 -22 71 -22h32q230 0 300 525q22 163 22 397v7q0 57 32 57h7q129 -12 129 -32q89 -162 89 -389q0 -816 -368 -990q-72 -32 -161 -32h-7q-354 0 -464 275q-68 177 -68 461z" />
<glyph unicode="V" horiz-adv-x="1400" d="M0 1705l6 3h13q238 0 370 -242q34 -49 233 -399q107 -182 109 -182q377 788 402 826h3q248 -200 248 -367q0 -232 -197 -779q-185 -426 -408 -565q-101 41 -252 151q-129 106 -197 201q-124 170 -164 383q-47 149 -94 471q-47 402 -72 499z" />
<glyph unicode="W" horiz-adv-x="1202" d="M0 533v37q31 708 90 708q179 -33 179 -233q0 -71 37 -443h5q59 301 111 401q81 172 106 174q221 0 380 -501h5v359q0 396 27 396q45 5 74 5h10q74 -7 74 -63q95 -379 95 -956v-121q-11 -233 -58 -233q-24 -10 -69 -10h-105q-100 0 -375 427l-11 6q-52 -194 -116 -328 q-85 -158 -227 -158q-232 0 -232 533z" />
<glyph unicode="X" horiz-adv-x="1262" d="M0 1133q40 137 150 276h7q41 -45 371 -483l52 -56q379 509 434 570q138 -38 227 -115q10 0 14 -35q0 -44 -206 -339q0 -10 -234 -343q265 -299 265 -454v-7q-5 -47 -73 -133q-27 20 -406 346q-339 -357 -416 -357q-13 -3 -31 -3q-91 6 -91 28q68 245 301 559 q-268 373 -357 521q-7 14 -7 25z" />
<glyph unicode="Y" horiz-adv-x="1121" d="M0 1559v3q67 39 144 39h14q128 0 199 -125q132 -176 265 -384q203 414 315 625h3q174 -26 174 -141v-28q0 -64 -279 -940q74 -338 105 -589q0 -15 -122 -19h-41q-158 0 -158 22q-80 312 -171 711q-365 542 -448 826z" />
<glyph unicode="Z" horiz-adv-x="1032" d="M0 1234q124 195 410 195h7q330 0 490 -160q39 -47 39 -108q0 -114 -181 -281q-240 -243 -240 -459v-21q0 -153 271 -191q60 -11 237 -28q-24 -70 -119 -129q-101 -52 -226 -52h-76q-4 0 -4 3q-3 0 -3 -3q-167 17 -261 56q-198 81 -274 257q-14 54 -21 101l3 17v38 q0 219 254 515q133 138 195 177v4q-76 24 -296 52q-3 0 -3 -4q-39 3 -39 7q-3 0 -3 -3q-42 3 -42 7q-3 0 -3 -4q-36 7 -112 7z" />
<glyph unicode="[" horiz-adv-x="758" />
<glyph unicode="\" horiz-adv-x="569" />
<glyph unicode="]" horiz-adv-x="758" />
<glyph unicode="^" />
<glyph unicode="_" horiz-adv-x="1057" d="M16 -10q15 12 36 12q152 0 252 12l4 -4h4q24 7 216 12q0 9 196 24q0 9 112 16q15 15 128 20q28 -61 28 -284l-12 -8h-12l-232 -40q-73 0 -184 -20h-32l-308 -20h-172l-16 12l4 20l-4 188z" />
<glyph unicode="`" horiz-adv-x="1024" />
<glyph unicode="a" horiz-adv-x="990" d="M0 360q0 462 445 625q111 33 147 33q201 -206 303 -658q57 -240 57 -341l-10 -5q-96 0 -222 133q-166 -147 -398 -147q-234 0 -303 213q-14 61 -19 147zM218 365q0 -111 147 -128q94 0 161 94l14 53q0 111 -156 146h-34q-71 0 -118 -85q-14 -61 -14 -80z" />
<glyph unicode="b" horiz-adv-x="962" d="M0 860v11q0 265 91 572q171 -34 171 -62q19 -120 30 -291h-4l4 -8q0 -51 7 -160q236 -40 364 -88q214 -89 270 -236q29 -77 29 -135h-4l4 -8q0 -325 -306 -422q-116 -33 -255 -33q-240 0 -361 452q-29 170 -29 178h4q-15 76 -15 230zM372 426q0 -126 156 -149 q71 0 139 44q69 56 69 124v10q0 104 -146 154q-36 7 -47 7q-119 0 -160 -120q-8 -17 -11 -70z" />
<glyph unicode="c" horiz-adv-x="849" d="M0 457v7q0 386 342 526q126 39 257 39q145 0 236 -52v-59q0 -46 -29 -46q-189 -32 -250 -89q-148 -124 -148 -263q0 -236 434 -448v-6q-99 -66 -250 -66q-433 0 -566 322q-26 67 -26 135z" />
<glyph unicode="d" horiz-adv-x="962" d="M0 445q0 332 335 444q134 37 234 37h91l7 -4q34 503 51 503q68 11 87 11q62 0 62 -58q84 -356 84 -737q0 -493 -164 -623q-33 -18 -76 -18q-367 0 -580 149q-131 110 -131 296zM284 401q0 -102 121 -142q19 -4 40 -4q110 0 182 120q11 39 11 55q0 84 -106 160 q-17 11 -55 19q-108 0 -185 -150q-8 -34 -8 -54v-4z" />
<glyph unicode="e" horiz-adv-x="884" d="M0 545q0 304 128 388q60 41 199 71l23 5v-5q42 8 133 14q255 0 341 -156q57 -136 57 -242q-384 -111 -384 -289q0 -59 85 -123q50 -39 270 -90v-4q-142 -114 -364 -114v5q-5 0 -5 -5q-180 0 -327 109q-156 137 -156 436zM189 672q0 -58 57 -113q42 -24 90 -24 q65 0 147 71q28 59 28 85v19q-37 123 -180 123q-142 -20 -142 -161z" />
<glyph unicode="f" horiz-adv-x="615" d="M0 646v34q2 406 77 486q46 43 274 43h21q116 0 219 -120q0 -9 -87 -28q-173 -57 -236 -172q-31 -74 -31 -95h246q6 -1 6 -7q-35 -134 -114 -190q-80 -53 -117 -53q13 -246 13 -415q-3 -86 -3 -111q-33 -18 -99 -18q-111 6 -111 22q-58 266 -58 624z" />
<glyph unicode="g" horiz-adv-x="629" d="M-7 647h4q0 4 -4 4q0 113 60 217q94 149 408 149h22q9 0 15 4q7 -4 15 -4h49q3 0 3 -4l8 4q28 0 41 -213q4 0 4 -8h-4q4 -2 11 -112h-3l3 -7v-26q0 -27 4 -83h-4l4 -7v-94q0 -3 -4 -3l4 -8q0 -4 -4 -4q0 -3 4 -3l-4 -27v-37q0 -4 -3 -4q0 -4 3 -4q-32 -338 -134 -389 q-33 -31 -128 -48v3q-5 -3 -48 -7v4l-8 -4h-60q-3 0 -3 4q-4 0 -4 -4q-70 0 -105 49q0 31 64 67q176 21 176 41q41 19 59 75q0 4 -3 4l3 18v38l-59 -4q-114 0 -247 94q-104 92 -124 194q-11 67 -11 135zM210 594q18 -108 101 -108h7q85 0 131 75q15 27 15 56 q-28 105 -146 105q-45 0 -89 -53q-9 -17 -19 -56l4 -7q0 -4 -4 -12z" />
<glyph unicode="h" horiz-adv-x="757" d="M0 325v91q0 420 87 801q17 14 41 14h41q60 0 60 -87q50 -253 50 -357h5q48 14 73 14h14q242 0 366 -476q9 -69 13 -142q0 -88 -68 -165h-14q-210 426 -311 426q-73 0 -101 -60l-41 -292q-31 -92 -82 -92h-46q-46 0 -46 46q-41 125 -41 279z" />
<glyph unicode="i" horiz-adv-x="233" d="M0 450v238q0 57 38 57h11q168 -15 182 -38v-94q-17 -555 -53 -575q0 -32 -34 -38h-15q-110 0 -110 79q-19 135 -19 371zM4 919v64q0 35 75 42h46q102 0 102 -76q0 -106 -53 -106q-49 0 -76 -3q-90 7 -90 64q-4 0 -4 15z" />
<glyph unicode="j" horiz-adv-x="446" d="M0 -73q8 25 102 115q51 36 95 60q11 0 12 627q0 44 112 72q45 7 90 12q27 -163 27 -341v-69q0 -285 -77 -403q-53 -50 -162 -70q-66 -15 -132 -15h-2q-65 1 -65 10v2zM204 948q0 40 70 84q22 13 35 13h12q45 0 87 -85v-20q0 -63 -94 -82q-49 0 -100 55q-10 24 -10 35z " />
<glyph unicode="k" horiz-adv-x="817" d="M0 612q0 152 32 336q36 124 74 183q22 43 74 43q38 0 71 -25q28 -29 43 -194h-1l1 -4l6 -102h-2l2 -3v-108q173 111 267 160q12 5 25 5h8q59 0 82 -97q11 -49 11 -83v-17q0 -18 -36 -38q-218 -169 -258 -198v-3q123 -54 249 -137q176 -121 176 -212v-7q0 -50 -52 -111h-2 q-6 0 -237 118l-235 123v-2q0 -66 -50 -162q-52 -75 -137 -75q-24 31 -48 111q-63 225 -63 499z" />
<glyph unicode="l" horiz-adv-x="375" d="M0 332h3q-3 6 -3 9q0 97 3 364h3q0 2 -3 2l3 21q0 64 6 335h3l-3 5v6q0 3 3 3l-3 6q0 49 128 61h46q3 0 3 -3q3 0 3 3q47 0 55 -58h-2l2 -6q-2 -58 -2 -87h-3q0 -3 3 -3q-6 -61 -6 -128h-3q0 -3 3 -3l-3 -15q0 -52 -6 -247q3 -14 3 -41h-3q3 -6 3 -9q0 -183 52 -305 q37 -59 64 -59q6 3 9 3l3 -5v-6q0 -143 -102 -172q-20 -3 -35 -3q-179 0 -218 268q0 24 -6 64z" />
<glyph unicode="m" horiz-adv-x="1011" d="M0 530v18q0 235 78 409q38 68 71 68h5q128 0 269 -257q45 -91 84 -218q3 -11 3 -15q3 0 25 99q98 389 282 389q89 0 139 -158q23 -93 23 -178q10 -113 10 -200v-15q0 -359 -91 -457q-33 -8 -56 -8q-36 0 -50 488v2h-1q-81 -172 -180 -309q-60 -68 -104 -104h-2 q-82 65 -158 144q-73 86 -132 178h-2v-2q15 -241 15 -341q0 -63 -99 -63h-9q-26 7 -62 97q-58 173 -58 433z" />
<glyph unicode="n" horiz-adv-x="919" d="M0 699q10 250 29 319q143 -33 204 -95q148 95 347 95q218 0 291 -266q28 -113 28 -257q0 -254 -81 -495h-143q-9 0 -9 10v33l24 342v5q0 247 -148 247h-4q-229 0 -295 -275q-15 -123 -15 -181q10 -93 10 -138v-5q0 -33 -33 -33h-15q-159 0 -185 580q0 63 -5 114z" />
<glyph unicode="o" horiz-adv-x="863" d="M0 474q0 417 158 489q106 62 331 62q260 0 344 -235q24 -90 24 -172q0 -372 -206 -565q-70 -53 -158 -53q-354 0 -469 321q-24 91 -24 153zM307 407q29 -139 134 -139q108 0 172 149v28q0 100 -139 149h-33q-134 -44 -134 -187z" />
<glyph unicode="p" horiz-adv-x="771" d="M0 819v4q0 195 14 195h2q86 -9 131 -9q187 7 209 7h27q265 0 356 -195q20 -55 20 -95v-64q0 -294 -240 -424q-73 -34 -202 -47q-43 -3 -43 -7q43 -205 43 -261v-6q-18 -23 -79 -23h-39q-90 0 -90 23q-109 478 -109 902zM317 583q0 -82 100 -93h7q82 0 122 77q5 16 5 27v9 q0 67 -89 98q-15 4 -36 7q-81 0 -104 -84q-5 -32 -5 -41z" />
<glyph unicode="q" horiz-adv-x="644" d="M-7 684v7q0 156 75 235q79 84 229 84q169 -9 181 -9q75 3 150 12l1 -3q6 -102 8 -211q0 -426 -113 -902q-42 -11 -103 -11q-47 5 -47 17v3q0 119 24 271q-88 12 -137 29q-147 56 -207 176q-61 108 -61 302zM195 608q0 -73 81 -128q37 -17 61 -17q72 0 106 88q4 16 4 33 v13q0 67 -58 118q-30 22 -59 22q-83 0 -126 -88q-9 -19 -9 -38v-3z" />
<glyph unicode="r" horiz-adv-x="692" d="M0 690h5l-5 9v62q6 257 29 257q76 -12 176 -76v-5q254 81 380 81v-5l10 5h28q5 0 5 -5q5 0 5 5q49 -6 62 -14q0 -143 -72 -143q-328 -143 -328 -376v-5q0 -67 38 -342h-5l5 -10v-61q0 -11 5 -19q0 -48 -172 -48q-82 0 -95 152q-65 308 -66 519z" />
<glyph unicode="s" horiz-adv-x="785" d="M0 114v5q0 14 48 19v-5q319 33 319 191q0 88 -152 186q-186 167 -186 215q-13 13 -15 47v38q0 104 205 182q118 33 248 33q165 0 234 -114v-5q-277 -24 -277 -138q0 -78 263 -267q90 -91 90 -172v-14q0 -161 -243 -277q-123 -38 -248 -38v5q-5 0 -5 -5q-281 38 -281 114z " />
<glyph unicode="t" horiz-adv-x="530" d="M0 464q0 387 76 608q25 20 56 20q116 -14 116 -44l4 -28q4 -232 4 -296q4 -58 4 -64h4q148 0 148 -128q4 0 4 -28v-4q0 -10 -104 -28q-52 -16 -52 -60q-4 -15 -4 -36q0 -130 76 -176q103 -17 140 -28q31 0 48 -144q0 -24 -32 -24q-40 0 -164 -4q-208 0 -272 120 q-52 120 -52 344z" />
<glyph unicode="u" horiz-adv-x="834" d="M0 521q3 77 10 77q0 4 -5 4q0 93 105 325q46 74 76 96h29q37 0 96 -43q-82 -245 -82 -392v-43q0 -162 139 -182h38q131 0 192 225q50 344 81 344q24 38 86 38t62 -162h-5l5 -10v-76q0 -347 -191 -703q-90 24 -101 24q-89 -43 -181 -43q-354 0 -354 521z" />
<glyph unicode="v" horiz-adv-x="919" d="M0 846q3 86 20 90h7q51 -5 213 -217q209 -282 213 -283h3q62 99 413 603h3q29 -28 44 -213q3 -23 3 -37q0 -405 -226 -659q-113 -114 -170 -130q-116 29 -253 147q-270 270 -270 699z" />
<glyph unicode="w" horiz-adv-x="1078" d="M0 731q0 101 26 323h9q136 0 220 -299q39 -172 39 -221h3q79 210 205 270q28 6 44 6q148 0 241 -305h6q0 54 97 308q43 100 146 215q30 -84 30 -282q0 -281 -129 -631q-57 -115 -97 -115h-3q-158 0 -294 352h-3q-43 -107 -152 -223q-124 -109 -188 -114 q-200 269 -200 716z" />
<glyph unicode="x" horiz-adv-x="926" d="M0 957v2q35 34 111 55q27 8 49 8q49 0 117 -83q31 -45 168 -261q145 230 201 312q13 18 30 18q257 -20 257 -37v-2q-12 -29 -89 -145q-108 -181 -221 -352q0 -8 227 -302q59 -75 59 -105v-4q0 -40 -114 -59q-13 0 -20 -2q-70 0 -117 55q-145 142 -201 220q0 3 -6 6 q-133 -163 -218 -275h-4q-47 51 -47 146q0 121 97 326z" />
<glyph unicode="y" horiz-adv-x="771" d="M14 902l5 2h52q122 0 146 -87q8 -7 169 -320h4q64 222 145 466q16 57 45 57q36 19 85 19q60 0 85 -47q7 -21 7 -36v-7q0 -78 -130 -433q-76 -213 -173 -378q-91 -144 -147 -204q-41 -33 -82 -33h-29q-43 0 -83 24q5 16 128 227q4 1 64 106q-249 363 -284 566q-7 52 -7 78 z" />
<glyph unicode="z" horiz-adv-x="792" d="M0 244q0 186 267 422q56 55 56 98q-20 79 -155 79q0 4 -39 4q-16 0 -119 -7l-3 7q125 181 260 181h36q205 0 346 -115q43 -45 43 -102q0 -102 -162 -264q-88 -108 -88 -208q0 -114 105 -151q63 -20 208 -20q15 -6 16 -13q-18 -64 -132 -119q-82 -36 -184 -36h-4 q-362 0 -431 142q-20 46 -20 102z" />
<glyph unicode="|" />
<glyph unicode="}" />
<glyph unicode="~" />
<glyph unicode="&#xa1;" horiz-adv-x="672" />
<glyph unicode="&#xa2;" horiz-adv-x="1139" />
<glyph unicode="&#xa3;" />
<glyph unicode="&#xa4;" />
<glyph unicode="&#xa5;" horiz-adv-x="1262" />
<glyph unicode="&#xa6;" />
<glyph unicode="&#xa7;" />
<glyph unicode="&#xa8;" horiz-adv-x="1024" />
<glyph unicode="&#xa9;" horiz-adv-x="1897" d="M0 877l8 84l-4 4v4q15 37 20 120q16 10 16 64q18 26 28 72q7 3 24 52q54 105 88 148q33 53 116 132q79 78 132 104q48 37 176 88l52 20l100 20l160 16q184 -16 244 -36q23 0 80 -20q151 -51 228 -112q106 -61 220 -220l60 -132q40 -89 56 -308q-16 -208 -36 -260 q0 -20 -20 -68q-32 -108 -124 -244q-99 -120 -176 -172l-68 -44q-71 -48 -164 -76q-14 -12 -56 -16q0 -14 -80 -20q0 -16 -128 -20q0 -6 -80 -12l-12 4l-36 -4h-8l-152 16q-88 20 -136 40q-49 12 -148 72q-50 30 -136 104q-145 161 -168 256q-9 0 -28 64l-16 56 q-12 0 -32 224zM268 865q19 -177 36 -204q22 -104 124 -228q64 -59 96 -72q0 -11 28 -16q31 -27 100 -44q0 -12 136 -32l48 -4l4 4h4l72 -8l24 4l4 -4h4q99 8 156 28q230 79 348 324q24 46 36 104q10 0 20 80q13 0 16 148q0 130 -24 196q0 32 -84 180q-7 0 -60 60 q-110 88 -176 108l-92 32l-108 20h-156q-95 -6 -220 -76q-52 -24 -156 -128q-45 -50 -88 -132q-32 -51 -52 -116q-20 -55 -28 -132q-9 0 -12 -92zM480 833v92q20 162 68 244q77 154 236 220q25 19 104 36l100 8q100 0 100 -36l4 -196v-44l4 -20l-16 -12h-4q0 16 -128 36h-8 q-84 0 -164 -72q-56 -64 -68 -128v-96q25 -118 72 -156q57 -49 148 -60h76q103 24 120 52l4 4h20q21 0 24 -104q8 0 16 -96v-68q0 -15 -48 -20q0 -17 -84 -20q-12 -12 -52 -12q-283 0 -408 160q-23 13 -64 92q-32 64 -52 196z" />
<glyph unicode="&#xaa;" horiz-adv-x="648" />
<glyph unicode="&#xad;" horiz-adv-x="1057" d="M-5 1030q15 12 36 12q152 0 252 12l4 -4h4q24 7 216 12q0 9 196 24q0 9 112 16q15 15 128 20q28 -61 28 -284l-12 -8h-12l-232 -40q-73 0 -184 -20h-32l-308 -20h-172l-16 12l4 20l-4 188z" />
<glyph unicode="&#xae;" horiz-adv-x="1897" d="M-5 786v136q19 146 44 228q16 28 16 60q8 5 68 132q49 81 152 200q87 74 172 128q168 90 236 92q0 14 164 28l60 4h40l180 -20q0 -10 84 -24q0 -8 60 -20q0 -7 52 -20q0 -9 40 -16l76 -48q144 -88 248 -244q54 -99 84 -208q12 -14 16 -104q7 0 12 -68v-8h-4l4 -40v-84 l-24 -156q-11 -9 -16 -68q-9 -5 -24 -68q-7 0 -20 -48l-60 -112q-131 -188 -304 -280l-4 -4q-128 -64 -156 -64q-36 -20 -100 -28q0 -9 -144 -24q0 -8 -40 -8h-152q-161 20 -272 68q0 9 -40 16l-100 60l-128 108q-134 169 -140 220q-24 21 -24 60q-16 0 -40 144zM263 822 q0 -99 64 -264q37 -72 88 -132q119 -113 212 -136q0 -8 64 -20q0 -12 224 -28l136 16q53 20 76 20q19 24 52 24l68 48q85 58 136 140q19 21 48 76q72 159 72 220q13 0 16 156q0 126 -24 192q0 16 -40 100q-32 65 -108 140q-116 97 -236 124q0 9 -84 20q0 10 -48 12h-160 q-148 -23 -248 -92q-140 -100 -208 -224q-39 -69 -56 -120q-24 -57 -44 -188v-84zM547 442l12 108l-4 4q20 109 20 364q0 138 -20 292v56q0 17 76 40q0 8 80 20q0 12 236 28h36q128 -18 164 -36q18 0 52 -20q96 -40 136 -140l8 -32v-68q-32 -141 -112 -204q-27 -34 -68 -52 q-35 -30 -128 -68l-36 -8v-4q71 -63 164 -116l32 -16q0 -6 40 -20q3 -8 36 -16l4 -4v-8q-72 -64 -184 -144h-4q-168 121 -292 288v4h-8l-4 -4h-4l4 -36q-21 -217 -28 -228l-8 -8q-101 16 -168 16h-8q-21 0 -24 12zM767 1118q16 -56 16 -176v-76l8 -8h48q131 22 192 80 q64 59 64 140q-32 76 -96 76q0 12 -64 16h-16q-63 0 -152 -48v-4z" />
<glyph unicode="&#xaf;" horiz-adv-x="670" />
<glyph unicode="&#xb1;" />
<glyph unicode="&#xb2;" />
<glyph unicode="&#xb3;" />
<glyph unicode="&#xb5;" horiz-adv-x="1180" />
<glyph unicode="&#xb9;" />
<glyph unicode="&#xba;" horiz-adv-x="718" />
<glyph unicode="&#xbc;" horiz-adv-x="1708" />
<glyph unicode="&#xbd;" horiz-adv-x="1964" />
<glyph unicode="&#xbe;" horiz-adv-x="1708" />
<glyph unicode="&#xbf;" horiz-adv-x="748" />
<glyph unicode="&#xc0;" horiz-adv-x="1540" />
<glyph unicode="&#xc1;" horiz-adv-x="1540" />
<glyph unicode="&#xc2;" horiz-adv-x="1540" />
<glyph unicode="&#xc3;" horiz-adv-x="1540" />
<glyph unicode="&#xc4;" horiz-adv-x="1540" />
<glyph unicode="&#xc5;" horiz-adv-x="1540" />
<glyph unicode="&#xc6;" horiz-adv-x="2118" />
<glyph unicode="&#xc7;" horiz-adv-x="1399" />
<glyph unicode="&#xc8;" horiz-adv-x="1151" />
<glyph unicode="&#xc9;" horiz-adv-x="1151" />
<glyph unicode="&#xca;" horiz-adv-x="1151" />
<glyph unicode="&#xcb;" horiz-adv-x="1151" />
<glyph unicode="&#xcc;" horiz-adv-x="657" />
<glyph unicode="&#xcd;" horiz-adv-x="657" />
<glyph unicode="&#xce;" horiz-adv-x="657" />
<glyph unicode="&#xcf;" horiz-adv-x="657" />
<glyph unicode="&#xd0;" horiz-adv-x="1518" />
<glyph unicode="&#xd1;" horiz-adv-x="1554" />
<glyph unicode="&#xd2;" horiz-adv-x="1614" />
<glyph unicode="&#xd3;" horiz-adv-x="1614" />
<glyph unicode="&#xd4;" horiz-adv-x="1614" />
<glyph unicode="&#xd5;" horiz-adv-x="1614" />
<glyph unicode="&#xd6;" horiz-adv-x="1614" />
<glyph unicode="&#xd7;" d="M161 470l247 247l-247 248l99 98l247 -247l248 247l98 -99l-247 -247l247 -247l-99 -99l-247 247l-247 -247z" />
<glyph unicode="&#xd8;" horiz-adv-x="1614" />
<glyph unicode="&#xd9;" horiz-adv-x="1501" />
<glyph unicode="&#xda;" horiz-adv-x="1501" />
<glyph unicode="&#xdb;" horiz-adv-x="1501" />
<glyph unicode="&#xdc;" horiz-adv-x="1501" />
<glyph unicode="&#xdd;" horiz-adv-x="1233" />
<glyph unicode="&#xde;" horiz-adv-x="1120" />
<glyph unicode="&#xdf;" horiz-adv-x="1251" />
<glyph unicode="&#xe0;" horiz-adv-x="922" />
<glyph unicode="&#xe1;" horiz-adv-x="922" />
<glyph unicode="&#xe2;" horiz-adv-x="922" />
<glyph unicode="&#xe3;" horiz-adv-x="922" />
<glyph unicode="&#xe4;" horiz-adv-x="922" />
<glyph unicode="&#xe5;" horiz-adv-x="922" />
<glyph unicode="&#xe6;" horiz-adv-x="1454" />
<glyph unicode="&#xe7;" horiz-adv-x="905" />
<glyph unicode="&#xe8;" horiz-adv-x="909" />
<glyph unicode="&#xe9;" horiz-adv-x="909" />
<glyph unicode="&#xea;" horiz-adv-x="909" />
<glyph unicode="&#xeb;" horiz-adv-x="909" />
<glyph unicode="&#xec;" horiz-adv-x="514" />
<glyph unicode="&#xed;" horiz-adv-x="514" />
<glyph unicode="&#xee;" horiz-adv-x="514" />
<glyph unicode="&#xef;" horiz-adv-x="514" />
<glyph unicode="&#xf0;" horiz-adv-x="1139" />
<glyph unicode="&#xf1;" horiz-adv-x="1108" />
<glyph unicode="&#xf2;" horiz-adv-x="1010" />
<glyph unicode="&#xf3;" horiz-adv-x="1010" />
<glyph unicode="&#xf4;" horiz-adv-x="1010" />
<glyph unicode="&#xf5;" horiz-adv-x="1010" />
<glyph unicode="&#xf6;" horiz-adv-x="1010" />
<glyph unicode="&#xf7;" d="M87 647v140h839l1 -1v-139h-840zM382 377q0 15 16 31l82 84q15 14 29 14q13 0 31 -16l80 -86q12 -16 12 -29q0 -15 -14 -31l-80 -88q-20 -20 -29 -20q-16 0 -29 14l-88 101q-10 13 -10 26zM382 1070q0 15 16 31l82 84q15 14 29 14q13 0 31 -16l80 -86q12 -16 12 -29 q0 -15 -14 -31l-80 -88q-20 -20 -29 -20q-16 0 -29 14l-88 101q-10 13 -10 26z" />
<glyph unicode="&#xf8;" horiz-adv-x="1010" />
<glyph unicode="&#xf9;" horiz-adv-x="1059" />
<glyph unicode="&#xfa;" horiz-adv-x="1059" />
<glyph unicode="&#xfb;" horiz-adv-x="1059" />
<glyph unicode="&#xfc;" horiz-adv-x="1059" />
<glyph unicode="&#xfd;" horiz-adv-x="868" />
<glyph unicode="&#xfe;" horiz-adv-x="1010" />
<glyph unicode="&#xff;" horiz-adv-x="868" />
<glyph unicode="&#x2c6;" horiz-adv-x="1024" d="M221 1079l232 355h118l232 -355h-58l-233 216l-233 -216h-58z" />
<glyph unicode="&#x2dc;" horiz-adv-x="1024" d="M234 1132q19 106 68 158.5t129 52.5q46 -1 113 -24q64 -23 112 -23h4q36 0 58 20t36 66h54q-20 -103 -68.5 -154t-126.5 -51h-4q-50 0 -113 23q-66 24 -114 24q-39 0 -60.5 -20.5t-33.5 -71.5h-54z" />
<glyph unicode="&#x2000;" horiz-adv-x="964" />
<glyph unicode="&#x2001;" horiz-adv-x="1928" />
<glyph unicode="&#x2002;" horiz-adv-x="964" />
<glyph unicode="&#x2003;" horiz-adv-x="1928" />
<glyph unicode="&#x2004;" horiz-adv-x="642" />
<glyph unicode="&#x2005;" horiz-adv-x="482" />
<glyph unicode="&#x2006;" horiz-adv-x="321" />
<glyph unicode="&#x2007;" horiz-adv-x="321" />
<glyph unicode="&#x2008;" horiz-adv-x="241" />
<glyph unicode="&#x2009;" horiz-adv-x="385" />
<glyph unicode="&#x200a;" horiz-adv-x="107" />
<glyph unicode="&#x2010;" horiz-adv-x="1057" d="M-5 1030q15 12 36 12q152 0 252 12l4 -4h4q24 7 216 12q0 9 196 24q0 9 112 16q15 15 128 20q28 -61 28 -284l-12 -8h-12l-232 -40q-73 0 -184 -20h-32l-308 -20h-172l-16 12l4 20l-4 188z" />
<glyph unicode="&#x2011;" horiz-adv-x="1057" d="M-5 1030q15 12 36 12q152 0 252 12l4 -4h4q24 7 216 12q0 9 196 24q0 9 112 16q15 15 128 20q28 -61 28 -284l-12 -8h-12l-232 -40q-73 0 -184 -20h-32l-308 -20h-172l-16 12l4 20l-4 188z" />
<glyph unicode="&#x2012;" horiz-adv-x="1057" d="M-5 1030q15 12 36 12q152 0 252 12l4 -4h4q24 7 216 12q0 9 196 24q0 9 112 16q15 15 128 20q28 -61 28 -284l-12 -8h-12l-232 -40q-73 0 -184 -20h-32l-308 -20h-172l-16 12l4 20l-4 188z" />
<glyph unicode="&#x2013;" horiz-adv-x="1108" d="M56 419v120h996v-120h-996z" />
<glyph unicode="&#x2014;" horiz-adv-x="2048" d="M0 419v120h2048v-120h-2048z" />
<glyph unicode="&#x2018;" horiz-adv-x="557" d="M186 1233q0 109 71 226.5t139 117.5v-43q-73 -43 -87 -190q0 -119 129 -161v-42l-119 -125q-44 0 -88.5 65.5t-44.5 151.5z" />
<glyph unicode="&#x2019;" horiz-adv-x="557" d="M119 1410v42l119 125q44 0 88.5 -65.5t44.5 -151.5q0 -109 -71 -226.5t-139 -117.5v43q73 43 87 190q0 119 -129 161z" />
<glyph unicode="&#x201a;" horiz-adv-x="557" d="M119 114v42l119 125q44 0 88.5 -65.5t44.5 -151.5q0 -109 -71 -226.5t-139 -117.5v43q73 43 87 190q0 119 -129 161z" />
<glyph unicode="&#x201c;" horiz-adv-x="910" d="M186 1233q0 109 71 226.5t139 117.5v-43q-73 -43 -87 -190q0 -119 129 -161v-42l-119 -125q-44 0 -88.5 65.5t-44.5 151.5zM539 1233q0 109 71 226.5t139 117.5v-43q-73 -43 -87 -190q0 -119 129 -161v-42l-119 -125q-44 0 -88.5 65.5t-44.5 151.5z" />
<glyph unicode="&#x201d;" horiz-adv-x="910" d="M119 1410v42l119 125q44 0 88.5 -65.5t44.5 -151.5q0 -109 -71 -226.5t-139 -117.5v43q73 43 87 190q0 119 -129 161zM472 1410v42l119 125q44 0 88.5 -65.5t44.5 -151.5q0 -109 -71 -226.5t-139 -117.5v43q73 43 87 190q0 119 -129 161z" />
<glyph unicode="&#x201e;" horiz-adv-x="910" d="M119 114v42l119 125q44 0 88.5 -65.5t44.5 -151.5q0 -109 -71 -226.5t-139 -117.5v43q73 43 87 190q0 119 -129 161zM472 114v42l119 125q44 0 88.5 -65.5t44.5 -151.5q0 -109 -71 -226.5t-139 -117.5v43q73 43 87 190q0 119 -129 161z" />
<glyph unicode="&#x2022;" horiz-adv-x="1024" d="M216 718q0 123 87 209t210 86q122 0 208.5 -86.5t86.5 -208.5t-87.5 -209.5t-209.5 -87.5q-123 0 -209 87t-86 210z" />
<glyph unicode="&#x2026;" horiz-adv-x="2048" d="M129 136q0 15 16 31l82 84q15 14 29 14q13 0 31 -16l80 -86q12 -16 12 -29q0 -15 -14 -31l-80 -88q-20 -20 -29 -20q-16 0 -29 14l-88 101q-10 13 -10 26zM812 136q0 15 16 31l82 84q15 14 29 14q13 0 31 -16l80 -86q12 -16 12 -29q0 -15 -14 -31l-80 -88 q-20 -20 -29 -20q-16 0 -29 14l-88 101q-10 13 -10 26zM1495 136q0 15 16 31l82 84q15 14 29 14q13 0 31 -16l80 -86q12 -16 12 -29q0 -15 -14 -31l-80 -88q-20 -20 -29 -20q-16 0 -29 14l-88 101q-10 13 -10 26z" />
<glyph unicode="&#x202f;" horiz-adv-x="385" />
<glyph unicode="&#x2039;" horiz-adv-x="631" d="M174 479l342 303h14v-37l-205 -266l205 -266v-37h-14z" />
<glyph unicode="&#x203a;" horiz-adv-x="631" d="M101 176v37l205 266l-205 266v37h14l342 -303l-342 -303h-14z" />
<glyph unicode="&#x205f;" horiz-adv-x="482" />
<glyph unicode="&#x20ac;" d="M-44 653l17 60h87v29q0 16 1 31h-71l17 60h58q14 145 76 281q81 178 226 274t298 96q43 0 87 -8q40 -10 82 -29q8 -6 16 -6q20 0 34 45h41l84 -281l-40 -1q-49 134 -138 178q-43 22 -81 32v3q-50 16 -101 16q-17 0 -34 -2q-120 -12 -226 -113.5t-157 -273.5 q-32 -104 -39 -211h706l-17 -60h-692q0 -30 2 -60h674l-17 -60h-652q17 -158 83 -298q74 -157 193 -236q102 -68 216 -69q186 3 256 91q74 91 74 185h48v-143q0 -70 -111 -127q-105 -54 -267 -56q-181 0 -325.5 98t-223.5 274q-62 135 -76 281h-108z" />
<glyph unicode="&#x2122;" horiz-adv-x="1497" />
<glyph unicode="&#x25fc;" horiz-adv-x="1020" d="M0 0v1020h1020v-1020h-1020z" />
</font>
</defs>
</svg>
